<?xml version="1.0" encoding="UTF-8"?>
<svg id="Layer_2" data-name="Layer 2" xmlns="http://www.w3.org/2000/svg" viewBox="0 0 511.4 78.52">
  <defs>
    <style>
      .cls-1 {
        fill: #dd8943;
      }
    </style>
  </defs>
  <g id="Layer_1-2" data-name="Layer 1">
    <g>
      <path class="cls-1" d="M0,77.09V1.27h20.99v57.37h36.75v18.45H0Z"/>
      <path class="cls-1" d="M62.55,60.07c0-5.92,2.06-10.47,6.19-13.64,4.12-3.17,9.71-4.76,16.76-4.76,5.25,0,9.96.76,14.12,2.27v-.95c0-6.34-3.91-9.52-11.74-9.52-5.36,0-10.73,1.08-16.13,3.23l-4.23-14.49c7.44-3.03,15.35-4.55,23.74-4.55,10.12,0,17.55,2.38,22.31,7.14,4.19,4.09,6.29,10.29,6.29,18.61v33.68h-20.36v-6.08c-4.48,4.94-10.22,7.4-17.24,7.4-5.78,0-10.51-1.61-14.2-4.84-3.68-3.22-5.53-7.73-5.53-13.51ZM82.38,59.11c0,1.97.67,3.53,2.01,4.68,1.34,1.15,3.08,1.72,5.23,1.72,3.03,0,5.49-.88,7.38-2.64,1.89-1.76,2.83-4.09,2.83-6.98v-2.75c-2.4-.99-5.08-1.48-8.04-1.48s-5.27.67-6.93,2.01c-1.66,1.34-2.48,3.16-2.48,5.45Z"/>
      <path class="cls-1" d="M126.95,35.11v-16.6h6.93V3.7h20.57v14.81h13.64v16.6h-13.64v19.87c0,2.05.46,3.54,1.38,4.48.92.94,2.34,1.4,4.28,1.4,2.5,0,5.09-.65,7.77-1.96v16.05c-4.05,2.24-8.81,3.36-14.28,3.36-6.42,0-11.31-1.54-14.67-4.62-3.37-3.08-5.05-8-5.05-14.76v-23.82h-6.93Z"/>
      <path class="cls-1" d="M172.9,47.85c0-4.23.73-8.23,2.19-12,1.46-3.77,3.48-7.02,6.05-9.76,2.57-2.73,5.7-4.9,9.39-6.5,3.68-1.6,7.66-2.41,11.92-2.41,4.9,0,9.27.85,13.11,2.56,3.84,1.71,6.94,4.05,9.31,7.03,2.36,2.98,4.15,6.37,5.37,10.18,1.22,3.81,1.82,7.91,1.82,12.32,0,1.87-.04,3.28-.11,4.23h-39.23c.81,3.21,2.32,5.65,4.52,7.32,2.2,1.68,4.93,2.51,8.17,2.51,4.58,0,8.92-2.04,13.01-6.11l11.37,9.5c-6.24,7.86-14.73,11.79-25.49,11.79-6.1,0-11.53-1.27-16.29-3.81-4.76-2.54-8.47-6.13-11.13-10.79-2.66-4.65-3.99-10.01-3.99-16.07ZM192.41,42.99h20.36c-.39-3.28-1.48-5.87-3.28-7.77-1.8-1.9-4.09-2.86-6.87-2.86s-4.87.96-6.69,2.88c-1.82,1.92-2.99,4.5-3.52,7.75Z"/>
      <path class="cls-1" d="M240.79,77.09V18.51h20.57v8.3c5.02-6.41,10.87-9.62,17.55-9.62,6.2,0,11.08,1.92,14.62,5.76,3.54,3.84,5.31,9.11,5.31,15.81v38.33h-20.57v-31.64c0-3.13-.75-5.55-2.25-7.25-1.5-1.71-3.51-2.56-6.02-2.56s-4.67.86-6.26,2.58c-1.59,1.72-2.39,4.13-2.39,7.23v31.64h-20.57Z"/>
      <path class="cls-1" d="M306.09,35.11v-16.6h6.93V3.7h20.57v14.81h13.64v16.6h-13.64v19.87c0,2.05.46,3.54,1.37,4.48.92.94,2.34,1.4,4.28,1.4,2.5,0,5.09-.65,7.77-1.96v16.05c-4.05,2.24-8.81,3.36-14.28,3.36-6.42,0-11.31-1.54-14.67-4.62s-5.05-8-5.05-14.76v-23.82h-6.93Z"/>
      <path class="cls-1" d="M383.98,77.09v-15.91l28.46-21.55c3.58-2.66,6.1-5.02,7.57-7.07,1.47-2.05,2.2-4.21,2.2-6.49s-.77-4.2-2.3-5.57c-1.53-1.37-3.57-2.05-6.11-2.05s-4.83.74-7.08,2.21c-2.26,1.47-4.92,3.96-7.98,7.46l-14.17-11.75c4.34-5.69,8.8-9.84,13.4-12.45,4.6-2.61,10.41-3.92,17.42-3.92,8.25,0,14.95,2.27,20.1,6.8,5.14,4.53,7.71,10.43,7.71,17.69,0,2.94-.36,5.61-1.08,8.01-.72,2.4-1.89,4.64-3.49,6.73-1.6,2.08-3.39,3.99-5.37,5.73-1.97,1.73-4.51,3.69-7.61,5.86l-13.01,9.04h31.3v17.24h-59.96Z"/>
      <path class="cls-1" d="M453.03,18.72V1.27h58.37v15.62l-33.47,60.2h-23.16l33.36-58.37h-35.11Z"/>
    </g>
  </g>
</svg>